<svg width="49" height="48" viewBox="0 0 49 48" fill="none" xmlns="http://www.w3.org/2000/svg">
<path d="M41 24C41.0012 24.5093 40.8707 25.0102 40.6209 25.4541C40.3712 25.898 40.0109 26.2697 39.575 26.5331L12.56 43.0593C12.1045 43.3382 11.5829 43.4905 11.0489 43.5004C10.5149 43.5103 9.98798 43.3774 9.5225 43.1156C9.06146 42.8578 8.67739 42.4819 8.40981 42.0265C8.14222 41.571 8.00077 41.0526 8 40.5243V7.47558C8.00077 6.94737 8.14222 6.42889 8.40981 5.97347C8.67739 5.51804 9.06146 5.14211 9.5225 4.88433C9.98798 4.62249 10.5149 4.48965 11.0489 4.49954C11.5829 4.50943 12.1045 4.66168 12.56 4.94058L39.575 21.4668C40.0109 21.7302 40.3712 22.1019 40.6209 22.5458C40.8707 22.9897 41.0012 23.4907 41 24Z" fill="url(#paint0_radial_1638_5156)"/>
<defs>
<radialGradient id="paint0_radial_1638_5156" cx="0" cy="0" r="1" gradientUnits="userSpaceOnUse" gradientTransform="translate(33.25 18) rotate(131.923) scale(32.928 27.8608)">
<stop stop-color="#CB8EF7"/>
<stop offset="1" stop-color="#AC5EE4"/>
</radialGradient>
</defs>
</svg>
