<svg width="49" height="48" viewBox="0 0 49 48" fill="none" xmlns="http://www.w3.org/2000/svg">
<path d="M40.8113 15.4388L30.3113 4.93875C30.1718 4.7995 30.0064 4.68908 29.8243 4.6138C29.6422 4.53851 29.447 4.49985 29.25 4.5H11.25C10.4544 4.5 9.69129 4.81607 9.12868 5.37868C8.56607 5.94129 8.25 6.70435 8.25 7.5V40.5C8.25 41.2957 8.56607 42.0587 9.12868 42.6213C9.69129 43.1839 10.4544 43.5 11.25 43.5H38.25C39.0457 43.5 39.8087 43.1839 40.3713 42.6213C40.9339 42.0587 41.25 41.2957 41.25 40.5V16.5C41.2502 16.303 41.2115 16.1078 41.1362 15.9257C41.0609 15.7436 40.9505 15.5782 40.8113 15.4388ZM30.75 33H18.75C18.3522 33 17.9706 32.842 17.6893 32.5607C17.408 32.2794 17.25 31.8978 17.25 31.5C17.25 31.1022 17.408 30.7206 17.6893 30.4393C17.9706 30.158 18.3522 30 18.75 30H30.75C31.1478 30 31.5294 30.158 31.8107 30.4393C32.092 30.7206 32.25 31.1022 32.25 31.5C32.25 31.8978 32.092 32.2794 31.8107 32.5607C31.5294 32.842 31.1478 33 30.75 33ZM30.75 27H18.75C18.3522 27 17.9706 26.842 17.6893 26.5607C17.408 26.2794 17.25 25.8978 17.25 25.5C17.25 25.1022 17.408 24.7206 17.6893 24.4393C17.9706 24.158 18.3522 24 18.75 24H30.75C31.1478 24 31.5294 24.158 31.8107 24.4393C32.092 24.7206 32.25 25.1022 32.25 25.5C32.25 25.8978 32.092 26.2794 31.8107 26.5607C31.5294 26.842 31.1478 27 30.75 27ZM29.25 16.5V8.25L37.5 16.5H29.25Z" fill="url(#paint0_radial_411_6046)"/>
<defs>
<radialGradient id="paint0_radial_411_6046" cx="0" cy="0" r="1" gradientUnits="userSpaceOnUse" gradientTransform="translate(14.7896 11.3799) rotate(51.7401) scale(39.6441 36.8467)">
<stop stop-color="#5354E8" stop-opacity="0.7"/>
<stop offset="1" stop-color="#5354E8"/>
</radialGradient>
</defs>
</svg>
