<svg width="20" height="20" viewBox="0 0 20 20" fill="currentColor" xmlns="http://www.w3.org/2000/svg">
<path d="M9.9998 12.9796C9.88869 12.9796 9.78452 12.9624 9.6873 12.9279C9.59007 12.8935 9.4998 12.8343 9.41646 12.7504L6.41646 9.75041C6.2498 9.58374 6.1698 9.3893 6.17646 9.16708C6.18313 8.94485 6.26313 8.75041 6.41646 8.58374C6.58313 8.41708 6.78119 8.33041 7.01063 8.32374C7.24007 8.31708 7.43785 8.3968 7.60396 8.56291L9.16646 10.1254V4.16708C9.16646 3.93097 9.24646 3.73319 9.40646 3.57374C9.56646 3.4143 9.76424 3.3343 9.9998 3.33374C10.2354 3.33319 10.4334 3.41319 10.594 3.57374C10.7545 3.7343 10.8342 3.93208 10.8331 4.16708V10.1254L12.3956 8.56291C12.5623 8.39624 12.7604 8.31624 12.9898 8.32291C13.2192 8.32958 13.417 8.41652 13.5831 8.58374C13.7359 8.75041 13.8159 8.94485 13.8231 9.16708C13.8304 9.3893 13.7504 9.58374 13.5831 9.75041L10.5831 12.7504C10.4998 12.8337 10.4095 12.8929 10.3123 12.9279C10.2151 12.9629 10.1109 12.9801 9.9998 12.9796ZM4.9998 16.6671C4.54146 16.6671 4.14924 16.504 3.82313 16.1779C3.49702 15.8518 3.33369 15.4593 3.33313 15.0004V13.3337C3.33313 13.0976 3.41313 12.8999 3.57313 12.7404C3.73313 12.581 3.93091 12.501 4.16646 12.5004C4.40202 12.4999 4.60007 12.5799 4.76063 12.7404C4.92119 12.901 5.00091 13.0987 4.9998 13.3337V15.0004H14.9998V13.3337C14.9998 13.0976 15.0798 12.8999 15.2398 12.7404C15.3998 12.581 15.5976 12.501 15.8331 12.5004C16.0687 12.4999 16.2667 12.5799 16.4273 12.7404C16.5879 12.901 16.6676 13.0987 16.6665 13.3337V15.0004C16.6665 15.4587 16.5034 15.8512 16.1773 16.1779C15.8512 16.5046 15.4587 16.6676 14.9998 16.6671H4.9998Z"/>
</svg>
