<svg width="20" height="20" viewBox="0 0 20 20" fill="currentColor" xmlns="http://www.w3.org/2000/svg">
<path d="M12.1873 10.0005C12.1873 10.4331 12.059 10.8561 11.8186 11.2158C11.5782 11.5755 11.2366 11.8559 10.8369 12.0215C10.4372 12.187 9.99733 12.2304 9.573 12.146C9.14866 12.0616 8.75889 11.8532 8.45296 11.5473C8.14703 11.2414 7.93869 10.8516 7.85429 10.4272C7.76988 10.0029 7.8132 9.56308 7.97877 9.16337C8.14434 8.76366 8.42471 8.42201 8.78445 8.18165C9.14418 7.94128 9.56711 7.81299 9.99976 7.81299C10.5799 7.81299 11.1363 8.04346 11.5466 8.45369C11.9568 8.86393 12.1873 9.42033 12.1873 10.0005ZM3.74976 7.81299C3.31711 7.81299 2.89418 7.94128 2.53445 8.18165C2.17471 8.42201 1.89434 8.76366 1.72877 9.16337C1.5632 9.56308 1.51988 10.0029 1.60429 10.4272C1.68869 10.8516 1.89703 11.2414 2.20296 11.5473C2.50889 11.8532 2.89866 12.0616 3.323 12.146C3.74733 12.2304 4.18716 12.187 4.58688 12.0215C4.98659 11.8559 5.32823 11.5755 5.5686 11.2158C5.80896 10.8561 5.93726 10.4331 5.93726 10.0005C5.93726 9.42033 5.70679 8.86393 5.29655 8.45369C4.88632 8.04346 4.32992 7.81299 3.74976 7.81299ZM16.2498 7.81299C15.8171 7.81299 15.3942 7.94128 15.0344 8.18165C14.6747 8.42201 14.3943 8.76366 14.2288 9.16337C14.0632 9.56308 14.0199 10.0029 14.1043 10.4272C14.1887 10.8516 14.397 11.2414 14.703 11.5473C15.0089 11.8532 15.3987 12.0616 15.823 12.146C16.2473 12.2304 16.6872 12.187 17.0869 12.0215C17.4866 11.8559 17.8282 11.5755 18.0686 11.2158C18.309 10.8561 18.4373 10.4331 18.4373 10.0005C18.4373 9.71322 18.3807 9.42877 18.2707 9.16337C18.1608 8.89797 17.9997 8.65682 17.7966 8.45369C17.5934 8.25056 17.3523 8.08943 17.0869 7.9795C16.8215 7.86957 16.537 7.81299 16.2498 7.81299Z"/>
</svg>
