<svg width="74" height="74" viewBox="0 0 74 74" fill="none" xmlns="http://www.w3.org/2000/svg">
<g filter="url(#filter0_d_2095_3972)">
<rect x="12" y="8" width="50.5023" height="50.5023" rx="25.2512" fill="#5354E8"/>
<path d="M28.2883 29.1438L28.5842 29.8246C28.6305 29.9354 28.7085 30.0301 28.8084 30.0967C28.9084 30.1634 29.0258 30.1989 29.1459 30.1989C29.2661 30.1989 29.3835 30.1634 29.4835 30.0967C29.5834 30.0301 29.6614 29.9354 29.7077 29.8246L30.0036 29.1438C30.5238 27.9394 31.4766 26.9737 32.6739 26.4373L33.5869 26.0296C33.6976 25.9786 33.7915 25.897 33.8572 25.7943C33.923 25.6917 33.958 25.5723 33.958 25.4504C33.958 25.3285 33.923 25.2091 33.8572 25.1065C33.7915 25.0038 33.6976 24.9222 33.5869 24.8712L32.7244 24.4875C31.497 23.9359 30.5279 22.9345 30.0168 21.6897L29.7125 20.9548C29.6678 20.8409 29.5898 20.7432 29.4888 20.6743C29.3877 20.6054 29.2682 20.5685 29.1459 20.5685C29.0236 20.5685 28.9042 20.6054 28.8031 20.6743C28.7021 20.7432 28.6241 20.8409 28.5794 20.9548L28.2751 21.6885C27.7645 22.9335 26.7958 23.9353 25.5687 24.4875L24.705 24.8724C24.5946 24.9235 24.5011 25.0052 24.4356 25.1077C24.3701 25.2102 24.3352 25.3293 24.3352 25.451C24.3352 25.5727 24.3701 25.6918 24.4356 25.7943C24.5011 25.8969 24.5946 25.9785 24.705 26.0296L25.6192 26.4361C26.8162 26.9731 27.7686 27.9391 28.2883 29.1438ZM29.1459 32.5983C28.3295 32.599 27.5189 32.4611 26.7487 32.1906C26.743 32.3269 26.7402 32.4628 26.7402 32.5983C26.7402 35.1505 27.7541 37.5981 29.5587 39.4027C31.3633 41.2073 33.8109 42.2211 36.363 42.2211V46.4311C42.3773 44.0254 50.7972 40.4169 50.7972 32.5983C50.7972 30.0462 49.7834 27.5986 47.9788 25.794C46.1742 23.9894 43.7266 22.9755 41.1744 22.9755H36.363C36.2267 22.9755 36.0908 22.9783 35.9553 22.984C36.3386 24.0725 36.4553 25.237 36.2956 26.3799C36.1359 27.5228 35.7045 28.6108 35.0375 29.5525C34.3706 30.4942 33.4875 31.2623 32.4623 31.7923C31.4372 32.3222 30.3 32.5987 29.1459 32.5983Z" fill="white"/>
</g>
<defs>
<filter id="filter0_d_2095_3972" x="0.981309" y="0.654206" width="72.5397" height="72.5397" filterUnits="userSpaceOnUse" color-interpolation-filters="sRGB">
<feFlood flood-opacity="0" result="BackgroundImageFix"/>
<feColorMatrix in="SourceAlpha" type="matrix" values="0 0 0 0 0 0 0 0 0 0 0 0 0 0 0 0 0 0 127 0" result="hardAlpha"/>
<feOffset dy="3.6729"/>
<feGaussianBlur stdDeviation="5.50935"/>
<feColorMatrix type="matrix" values="0 0 0 0 0 0 0 0 0 0 0 0 0 0 0 0 0 0 0.1 0"/>
<feBlend mode="normal" in2="BackgroundImageFix" result="effect1_dropShadow_2095_3972"/>
<feBlend mode="normal" in="SourceGraphic" in2="effect1_dropShadow_2095_3972" result="shape"/>
</filter>
</defs>
</svg>
