<svg width="22" height="22" viewBox="0 0 22 22" fill="currentColor" xmlns="http://www.w3.org/2000/svg">
<g clip-path="url(#clip0_853_3303)">
<path d="M5.24254 6.50254C5.24254 6.1657 5.30888 5.83216 5.43779 5.52096C5.56669 5.20976 5.75563 4.92699 5.99381 4.68881C6.23199 4.45063 6.51476 4.26169 6.82596 4.13279C7.13716 4.00388 7.4707 3.93754 7.80754 3.93754C8.14438 3.93754 8.47792 4.00388 8.78912 4.13279C9.10032 4.26169 9.38309 4.45063 9.62127 4.68881C9.85945 4.92699 10.0484 5.20976 10.1773 5.52096C10.3062 5.83216 10.3725 6.1657 10.3725 6.50254C10.3725 7.18282 10.1023 7.83524 9.62127 8.31627C9.14024 8.7973 8.48782 9.06754 7.80754 9.06754C7.12726 9.06754 6.47484 8.7973 5.99381 8.31627C5.51278 7.83524 5.24254 7.18282 5.24254 6.50254ZM7.80754 2.22754C6.67374 2.22754 5.58638 2.67794 4.78466 3.47966C3.98294 4.28138 3.53254 5.36874 3.53254 6.50254C3.53254 7.63634 3.98294 8.7237 4.78466 9.52542C5.58638 10.3271 6.67374 10.7775 7.80754 10.7775C8.94134 10.7775 10.0287 10.3271 10.8304 9.52542C11.6321 8.7237 12.0825 7.63634 12.0825 6.50254C12.0825 5.36874 11.6321 4.28138 10.8304 3.47966C10.0287 2.67794 8.94134 2.22754 7.80754 2.22754ZM13.7925 2.22754H12.9375V3.93754H13.7925C14.1294 3.93754 14.4629 4.00388 14.7741 4.13279C15.0853 4.26169 15.3681 4.45063 15.6063 4.68881C15.8444 4.92699 16.0334 5.20976 16.1623 5.52096C16.2912 5.83216 16.3575 6.1657 16.3575 6.50254C16.3575 6.83938 16.2912 7.17292 16.1623 7.48412C16.0334 7.79532 15.8444 8.07809 15.6063 8.31627C15.3681 8.55445 15.0853 8.74339 14.7741 8.87229C14.4629 9.00119 14.1294 9.06754 13.7925 9.06754H12.9375V10.7775H13.7925C14.9263 10.7775 16.0137 10.3271 16.8154 9.52542C17.6171 8.7237 18.0675 7.63634 18.0675 6.50254C18.0675 5.36874 17.6171 4.28138 16.8154 3.47966C16.0137 2.67794 14.9263 2.22754 13.7925 2.22754ZM0.540039 16.7625C0.540039 15.6287 0.99044 14.5414 1.79216 13.7397C2.59388 12.9379 3.68124 12.4875 4.81504 12.4875H10.8C11.9338 12.4875 13.0212 12.9379 13.8229 13.7397C14.6246 14.5414 15.075 15.6287 15.075 16.7625V18.4725H13.365V16.7625C13.365 16.0823 13.0948 15.4298 12.6138 14.9488C12.1327 14.4678 11.4803 14.1975 10.8 14.1975H4.81504C4.13476 14.1975 3.48234 14.4678 3.00131 14.9488C2.52028 15.4298 2.25004 16.0823 2.25004 16.7625V18.4725H0.540039V16.7625ZM21.06 16.7625C21.06 16.2011 20.9495 15.6452 20.7346 15.1266C20.5198 14.6079 20.2049 14.1366 19.8079 13.7397C19.4109 13.3427 18.9397 13.0278 18.421 12.813C17.9023 12.5981 17.3464 12.4875 16.785 12.4875H15.93V14.1975H16.785C17.4653 14.1975 18.1177 14.4678 18.5988 14.9488C19.0798 15.4298 19.35 16.0823 19.35 16.7625V18.4725H21.06V16.7625Z"/>
</g>
<defs>
<clipPath id="clip0_853_3303">
<rect width="21.6" height="21.6" fill="white"/>
</clipPath>
</defs>
</svg>
