<svg width="23" height="22" viewBox="0 0 23 22" fill="currentColor" xmlns="http://www.w3.org/2000/svg">
<path d="M11.4 14.85C11.7581 14.85 12.1015 14.9923 12.3546 15.2455C12.6078 15.4986 12.75 15.842 12.75 16.2C12.75 16.5581 12.6078 16.9015 12.3546 17.1546C12.1015 17.4078 11.7581 17.55 11.4 17.55C11.042 17.55 10.6986 17.4078 10.4455 17.1546C10.1923 16.9015 10.05 16.5581 10.05 16.2C10.05 15.842 10.1923 15.4986 10.4455 15.2455C10.6986 14.9923 11.042 14.85 11.4 14.85ZM11.4 9.45005C11.7581 9.45005 12.1015 9.59228 12.3546 9.84545C12.6078 10.0986 12.75 10.442 12.75 10.8C12.75 11.1581 12.6078 11.5015 12.3546 11.7546C12.1015 12.0078 11.7581 12.15 11.4 12.15C11.042 12.15 10.6986 12.0078 10.4455 11.7546C10.1923 11.5015 10.05 11.1581 10.05 10.8C10.05 10.442 10.1923 10.0986 10.4455 9.84545C10.6986 9.59228 11.042 9.45005 11.4 9.45005ZM11.4 4.05005C11.7581 4.05005 12.1015 4.19228 12.3546 4.44545C12.6078 4.69863 12.75 5.04201 12.75 5.40005C12.75 5.75809 12.6078 6.10147 12.3546 6.35464C12.1015 6.60782 11.7581 6.75005 11.4 6.75005C11.042 6.75005 10.6986 6.60782 10.4455 6.35464C10.1923 6.10147 10.05 5.75809 10.05 5.40005C10.05 5.04201 10.1923 4.69863 10.4455 4.44545C10.6986 4.19228 11.042 4.05005 11.4 4.05005Z"/>
</svg>
