<svg width="14" height="14" viewBox="0 0 14 14" fill="currentColor" xmlns="http://www.w3.org/2000/svg">
<path d="M10.8507 4.69258L9.21999 3.06073C8.10514 1.94423 7.54799 1.38708 6.94904 1.51908C6.35009 1.65108 6.07949 2.39193 5.53664 3.87308L5.16924 4.87573C5.02459 5.27063 4.95199 5.46808 4.82164 5.62098C4.76337 5.68973 4.69687 5.75105 4.62364 5.80358C4.46084 5.92073 4.25844 5.97628 3.85364 6.08793C2.94064 6.33983 2.48359 6.46578 2.31144 6.76443C2.23702 6.8937 2.1983 7.04042 2.19924 7.18958C2.20144 7.53443 2.53639 7.86938 3.20574 8.53983L3.98454 9.31863L1.52274 11.7826C1.44773 11.8622 1.40665 11.9678 1.40825 12.0771C1.40984 12.1864 1.45397 12.2908 1.53128 12.3681C1.60858 12.4454 1.71297 12.4895 1.82228 12.4911C1.93159 12.4927 2.03722 12.4516 2.11674 12.3766L4.57799 9.91263L5.38429 10.72C6.05859 11.3943 6.39574 11.732 6.74279 11.732C6.88854 11.732 7.03209 11.6946 7.15914 11.622C7.46054 11.4499 7.58704 10.9901 7.84059 10.0699C7.95169 9.66568 8.00724 9.46383 8.12384 9.30048C8.17518 9.22935 8.23421 9.16481 8.30094 9.10688C8.45219 8.97598 8.64854 8.90228 9.04069 8.75488L10.0549 8.37373C11.5201 7.82373 12.2527 7.54818 12.3814 6.95143C12.5106 6.35413 11.9579 5.80028 10.8507 4.69258Z" />
</svg>
