<svg width="25" height="25" viewBox="0 0 25 25" fill="currentColor" xmlns="http://www.w3.org/2000/svg">
<path d="M13.5 6.896C13.5 6.63078 13.3946 6.37643 13.2071 6.18889C13.0196 6.00135 12.7652 5.896 12.5 5.896C12.2348 5.896 11.9804 6.00135 11.7929 6.18889C11.6054 6.37643 11.5 6.63078 11.5 6.896V11.896H6.5C6.23478 11.896 5.98043 12.0014 5.79289 12.1889C5.60536 12.3764 5.5 12.6308 5.5 12.896C5.5 13.1612 5.60536 13.4156 5.79289 13.6031C5.98043 13.7906 6.23478 13.896 6.5 13.896H11.5V18.896C11.5 19.1612 11.6054 19.4156 11.7929 19.6031C11.9804 19.7906 12.2348 19.896 12.5 19.896C12.7652 19.896 13.0196 19.7906 13.2071 19.6031C13.3946 19.4156 13.5 19.1612 13.5 18.896V13.896H18.5C18.7652 13.896 19.0196 13.7906 19.2071 13.6031C19.3946 13.4156 19.5 13.1612 19.5 12.896C19.5 12.6308 19.3946 12.3764 19.2071 12.1889C19.0196 12.0014 18.7652 11.896 18.5 11.896H13.5V6.896Z"/>
</svg>
