<svg width="19" height="20" viewBox="0 0 19 20" fill="currentColor" xmlns="http://www.w3.org/2000/svg">
<path d="M6.12723 13.2824L7.46559 12.8963L15.5239 4.74153C15.5874 4.6764 15.6228 4.58888 15.6224 4.49787C15.622 4.40686 15.5858 4.31967 15.5216 4.25514L15.039 3.76722C15.0078 3.73517 14.9705 3.70966 14.9294 3.69217C14.8882 3.67468 14.844 3.66556 14.7993 3.66535C14.7546 3.66514 14.7103 3.67384 14.669 3.69093C14.6277 3.70803 14.5902 3.73319 14.5587 3.76493L6.52167 11.8985L6.12723 13.2824ZM15.9943 2.80049L16.4769 3.28918C17.1427 3.96329 17.1488 5.05085 16.4891 5.71813L8.18531 14.1222L5.32467 14.9461C5.23819 14.9704 5.14777 14.9774 5.05857 14.9668C4.96937 14.9561 4.88314 14.928 4.8048 14.884C4.72646 14.8401 4.65755 14.7811 4.60201 14.7105C4.54646 14.6399 4.50537 14.5591 4.48107 14.4726C4.4438 14.3472 4.44327 14.2137 4.47955 14.088L5.31175 11.1696L13.5935 2.78758C13.7509 2.62901 13.9384 2.50338 14.145 2.41803C14.3515 2.33267 14.573 2.28929 14.7964 2.29043C15.0199 2.29156 15.2409 2.33718 15.4466 2.42462C15.6523 2.51206 15.8384 2.64034 15.9943 2.80049ZM7.23987 3.67677C7.61683 3.67677 7.92235 3.9861 7.92235 4.36761C7.92295 4.4578 7.90577 4.54722 7.87179 4.63077C7.8378 4.71431 7.78769 4.79033 7.7243 4.8545C7.66092 4.91866 7.58551 4.96969 7.50239 5.00469C7.41926 5.03969 7.33006 5.05796 7.23987 5.05845H4.50995C3.75603 5.05845 3.14499 5.67709 3.14499 6.43937V14.7279C3.14499 15.491 3.75603 16.1096 4.50995 16.1096H12.6997C13.4536 16.1096 14.0654 15.491 14.0654 14.7279V11.9653C14.0654 11.5838 14.3709 11.2745 14.7479 11.2745C15.1249 11.2745 15.4304 11.5838 15.4304 11.9661V14.7279C15.4304 16.254 14.2076 17.4913 12.6997 17.4913H4.50995C3.00211 17.4913 1.78003 16.254 1.78003 14.7279V6.43937C1.78003 4.91406 3.00211 3.67677 4.50995 3.67677H7.23987Z"/>
</svg>
