<svg width="66" height="26" viewBox="0 0 66 26" fill="none" xmlns="http://www.w3.org/2000/svg">
<g filter="url(#filter0_d_1277_4946)">
<path d="M19.043 17.8008C18.2617 18.4648 17.3906 18.9766 16.4297 19.3359C15.4688 19.6875 14.4688 19.8633 13.4297 19.8633C12.6328 19.8633 11.8633 19.7578 11.1211 19.5469C10.3867 19.3438 9.69922 19.0547 9.05859 18.6797C8.41797 18.2969 7.83203 17.8438 7.30078 17.3203C6.76953 16.7891 6.31641 16.2031 5.94141 15.5625C5.56641 14.9141 5.27344 14.2188 5.0625 13.4766C4.85938 12.7344 4.75781 11.9648 4.75781 11.168C4.75781 10.3711 4.85938 9.60547 5.0625 8.87109C5.27344 8.13672 5.56641 7.44922 5.94141 6.80859C6.31641 6.16016 6.76953 5.57422 7.30078 5.05078C7.83203 4.51953 8.41797 4.06641 9.05859 3.69141C9.69922 3.31641 10.3867 3.02734 11.1211 2.82422C11.8633 2.61328 12.6328 2.50781 13.4297 2.50781C14.4688 2.50781 15.4688 2.6875 16.4297 3.04688C17.3906 3.39844 18.2617 3.90625 19.043 4.57031L17.2852 7.5C16.7773 6.98438 16.1914 6.58203 15.5273 6.29297C14.8633 5.99609 14.1641 5.84766 13.4297 5.84766C12.6953 5.84766 12.0039 5.98828 11.3555 6.26953C10.7148 6.55078 10.1523 6.93359 9.66797 7.41797C9.18359 7.89453 8.80078 8.45703 8.51953 9.10547C8.23828 9.74609 8.09766 10.4336 8.09766 11.168C8.09766 11.9102 8.23828 12.6055 8.51953 13.2539C8.80078 13.9023 9.18359 14.4688 9.66797 14.9531C10.1523 15.4375 10.7148 15.8203 11.3555 16.1016C12.0039 16.3828 12.6953 16.5234 13.4297 16.5234C13.8516 16.5234 14.2617 16.4727 14.6602 16.3711C15.0586 16.2695 15.4375 16.1289 15.7969 15.9492V11.168H19.043V17.8008ZM26.2852 16.4297C26.4102 16.4688 26.5352 16.4961 26.6602 16.5117C26.7852 16.5195 26.9102 16.5234 27.0352 16.5234C27.3477 16.5234 27.6484 16.4805 27.9375 16.3945C28.2266 16.3086 28.4961 16.1875 28.7461 16.0312C29.0039 15.8672 29.2305 15.6719 29.4258 15.4453C29.6289 15.2109 29.793 14.9531 29.918 14.6719L32.2617 17.0273C31.9648 17.4492 31.6211 17.8281 31.2305 18.1641C30.8477 18.5 30.4297 18.7852 29.9766 19.0195C29.5312 19.2539 29.0586 19.4297 28.5586 19.5469C28.0664 19.6719 27.5586 19.7344 27.0352 19.7344C26.1523 19.7344 25.3203 19.5703 24.5391 19.2422C23.7656 18.9141 23.0859 18.457 22.5 17.8711C21.9219 17.2852 21.4648 16.5898 21.1289 15.7852C20.793 14.9727 20.625 14.082 20.625 13.1133C20.625 12.1211 20.793 11.2148 21.1289 10.3945C21.4648 9.57422 21.9219 8.875 22.5 8.29688C23.0859 7.71875 23.7656 7.26953 24.5391 6.94922C25.3203 6.62891 26.1523 6.46875 27.0352 6.46875C27.5586 6.46875 28.0703 6.53125 28.5703 6.65625C29.0703 6.78125 29.543 6.96094 29.9883 7.19531C30.4414 7.42969 30.8633 7.71875 31.2539 8.0625C31.6445 8.39844 31.9883 8.77734 32.2852 9.19922L26.2852 16.4297ZM27.9258 9.83203C27.7773 9.77734 27.6289 9.74219 27.4805 9.72656C27.3398 9.71094 27.1914 9.70312 27.0352 9.70312C26.5977 9.70312 26.1836 9.78516 25.793 9.94922C25.4102 10.1055 25.0742 10.332 24.7852 10.6289C24.5039 10.9258 24.2812 11.2852 24.1172 11.707C23.9531 12.1211 23.8711 12.5898 23.8711 13.1133C23.8711 13.2305 23.875 13.3633 23.8828 13.5117C23.8984 13.6602 23.918 13.8125 23.9414 13.9688C23.9727 14.1172 24.0078 14.2617 24.0469 14.4023C24.0859 14.543 24.1367 14.668 24.1992 14.7773L27.9258 9.83203ZM37.1016 19.5H33.9023V6.94922H34.6758L35.7305 8.16797C36.2461 7.69922 36.8281 7.33984 37.4766 7.08984C38.1328 6.83203 38.8164 6.70312 39.5273 6.70312C40.293 6.70312 41.0156 6.85156 41.6953 7.14844C42.375 7.4375 42.9688 7.83984 43.4766 8.35547C43.9844 8.86328 44.3828 9.46094 44.6719 10.1484C44.9688 10.8281 45.1172 11.5547 45.1172 12.3281V19.5H41.918V12.3281C41.918 12 41.8555 11.6914 41.7305 11.4023C41.6055 11.1055 41.4336 10.8477 41.2148 10.6289C40.9961 10.4102 40.7422 10.2383 40.4531 10.1133C40.1641 9.98828 39.8555 9.92578 39.5273 9.92578C39.1914 9.92578 38.875 9.98828 38.5781 10.1133C38.2812 10.2383 38.0234 10.4102 37.8047 10.6289C37.5859 10.8477 37.4141 11.1055 37.2891 11.4023C37.1641 11.6914 37.1016 12 37.1016 12.3281V19.5ZM61.207 11.0977C61.207 11.8711 61.1055 12.6172 60.9023 13.3359C60.707 14.0469 60.4258 14.7148 60.0586 15.3398C59.6914 15.957 59.2539 16.5234 58.7461 17.0391C58.2383 17.5469 57.6719 17.9844 57.0469 18.3516C56.4219 18.7188 55.75 19.0039 55.0312 19.207C54.3203 19.4023 53.5781 19.5 52.8047 19.5H47.7422V2.69531H52.8047C53.5781 2.69531 54.3203 2.79688 55.0312 3C55.75 3.19531 56.4219 3.47656 57.0469 3.84375C57.6719 4.21094 58.2383 4.65234 58.7461 5.16797C59.2539 5.67578 59.6914 6.24219 60.0586 6.86719C60.4258 7.48438 60.707 8.15234 60.9023 8.87109C61.1055 9.58203 61.207 10.3242 61.207 11.0977ZM57.8438 11.0977C57.8438 10.4023 57.7109 9.75 57.4453 9.14062C57.1875 8.53125 56.8281 8 56.3672 7.54688C55.9141 7.08594 55.3789 6.72266 54.7617 6.45703C54.1523 6.19141 53.5 6.05859 52.8047 6.05859H51.1289V16.1367H52.8047C53.5 16.1367 54.1523 16.0078 54.7617 15.75C55.3789 15.4844 55.9141 15.125 56.3672 14.6719C56.8281 14.2109 57.1875 13.6758 57.4453 13.0664C57.7109 12.4492 57.8438 11.793 57.8438 11.0977Z" fill="white"/>
</g>
<defs>
<filter id="filter0_d_1277_4946" x="0.757812" y="0.507812" width="64.4492" height="25.3555" filterUnits="userSpaceOnUse" color-interpolation-filters="sRGB">
<feFlood flood-opacity="0" result="BackgroundImageFix"/>
<feColorMatrix in="SourceAlpha" type="matrix" values="0 0 0 0 0 0 0 0 0 0 0 0 0 0 0 0 0 0 127 0" result="hardAlpha"/>
<feOffset dy="2"/>
<feGaussianBlur stdDeviation="2"/>
<feComposite in2="hardAlpha" operator="out"/>
<feColorMatrix type="matrix" values="0 0 0 0 0 0 0 0 0 0 0 0 0 0 0 0 0 0 0.1 0"/>
<feBlend mode="normal" in2="BackgroundImageFix" result="effect1_dropShadow_1277_4946"/>
<feBlend mode="normal" in="SourceGraphic" in2="effect1_dropShadow_1277_4946" result="shape"/>
</filter>
</defs>
</svg>
