<svg width="24" height="25" viewBox="0 0 24 25" fill="none" xmlns="http://www.w3.org/2000/svg">
<path fill-rule="evenodd" clip-rule="evenodd" d="M10.9004 16.5941C10.1472 16.8129 9.3697 16.9223 8.56786 16.9223C7.8054 16.9223 7.06911 16.8214 6.35897 16.6196C5.65631 16.4252 4.99851 16.1487 4.38555 15.7899C3.77259 15.4236 3.21196 14.99 2.70365 14.4892C2.19534 13.9809 1.76179 13.4202 1.40298 12.8073C1.04418 12.1869 0.763864 11.5216 0.562036 10.8114C0.367684 10.1013 0.270508 9.36501 0.270508 8.60255C0.270508 7.84009 0.367684 7.10753 0.562036 6.40487C0.763864 5.70221 1.04418 5.0444 1.40298 4.43145C1.76179 3.81101 2.19534 3.25038 2.70365 2.74955C3.21196 2.24124 3.77259 1.80769 4.38555 1.44888C4.99851 1.09008 5.65631 0.8135 6.35897 0.619148C7.06911 0.41732 7.8054 0.316406 8.56786 0.316406C9.56205 0.316406 10.5189 0.488333 11.4383 0.832188C12.3577 1.16857 13.1912 1.65445 13.9387 2.28983L12.2568 5.09299C11.7709 4.59964 11.2103 4.21467 10.5749 3.93809C9.93954 3.65404 9.27052 3.51201 8.56786 3.51201C7.8652 3.51201 7.20366 3.64656 6.58322 3.91566C5.97027 4.18477 5.43206 4.55105 4.9686 5.0145C4.50515 5.47048 4.13887 6.00869 3.86977 6.62912C3.60066 7.24208 3.46611 7.89989 3.46611 8.60255C3.46611 9.31268 3.60066 9.97796 3.86977 10.5984C4.13887 11.2188 4.50515 11.7608 4.9686 12.2242C5.43206 12.6877 5.97027 13.054 6.58322 13.3231C7.20366 13.5922 7.8652 13.7267 8.56786 13.7267C8.97152 13.7267 9.36396 13.6781 9.74519 13.581C10.1264 13.4838 10.489 13.3492 10.8328 13.1773V11.798H9.74519H7.97349V8.60264L10.8328 8.60255H13.9387V8.60504H15.7443C16.4843 8.60504 17.1945 8.70222 17.8747 8.89657C18.5624 9.08345 19.2053 9.35255 19.8033 9.70388C20.4013 10.0552 20.9432 10.4776 21.4291 10.9709C21.915 11.4568 22.3336 11.9987 22.6849 12.5967C23.0363 13.1873 23.3054 13.8264 23.4922 14.5141C23.6866 15.1943 23.7838 15.9045 23.7838 16.6445C23.7838 17.3845 23.6866 18.0984 23.4922 18.7861C23.3054 19.4664 23.0363 20.1055 22.6849 20.7035C22.3336 21.294 21.915 21.836 21.4291 22.3293C20.9432 22.8152 20.4013 23.2338 19.8033 23.5851C19.2053 23.9365 18.5624 24.2093 17.8747 24.4037C17.1945 24.5905 16.4843 24.684 15.7443 24.684H10.9004V16.5941ZM20.1845 14.772C20.4387 15.3551 20.5657 15.9792 20.5657 16.6445C20.5657 17.3098 20.4387 17.9377 20.1845 18.5282C19.9378 19.1113 19.594 19.6233 19.1529 20.0644C18.7194 20.4979 18.2073 20.8418 17.6168 21.0959C17.0338 21.3426 16.4096 21.4659 15.7443 21.4659H14.1409L14.1409 11.8231H15.7443C16.4096 11.8231 17.0338 11.9501 17.6168 12.2043C18.2073 12.4585 18.7194 12.806 19.1529 13.2471C19.594 13.6806 19.9378 14.1889 20.1845 14.772Z" fill="white"/>
</svg>
