<svg width="15" height="14" viewBox="0 0 15 14" fill="none" xmlns="http://www.w3.org/2000/svg">
<path d="M13.3397 7.96131H8.52307V12.778C8.52307 13.0335 8.42158 13.2785 8.24092 13.4592C8.06026 13.6398 7.81523 13.7413 7.55974 13.7413C7.30425 13.7413 7.05922 13.6398 6.87856 13.4592C6.6979 13.2785 6.59641 13.0335 6.59641 12.778V7.96131H1.77974C1.52425 7.96131 1.27922 7.85981 1.09856 7.67915C0.9179 7.49849 0.816406 7.25346 0.816406 6.99797C0.816406 6.74248 0.9179 6.49745 1.09856 6.31679C1.27922 6.13613 1.52425 6.03464 1.77974 6.03464H6.59641V1.21797C6.59641 0.96248 6.6979 0.717452 6.87856 0.536792C7.05922 0.356132 7.30425 0.254639 7.55974 0.254639C7.81523 0.254639 8.06026 0.356132 8.24092 0.536792C8.42158 0.717452 8.52307 0.96248 8.52307 1.21797V6.03464H13.3397C13.5952 6.03464 13.8403 6.13613 14.0209 6.31679C14.2016 6.49745 14.3031 6.74248 14.3031 6.99797C14.3031 7.25346 14.2016 7.49849 14.0209 7.67915C13.8403 7.85981 13.5952 7.96131 13.3397 7.96131Z" fill="#666666"/>
</svg>
