<svg width="15" height="14" viewBox="0 0 15 14" fill="none" xmlns="http://www.w3.org/2000/svg">
<path d="M13.6278 6.12515H8.37471V0.872092C8.37471 0.639893 8.28247 0.417203 8.11828 0.253013C7.95409 0.0888232 7.7314 -0.00341797 7.4992 -0.00341797C7.267 -0.00341797 7.04431 0.0888232 6.88012 0.253013C6.71593 0.417203 6.62369 0.639893 6.62369 0.872092V6.12515H1.37063C1.13843 6.12515 0.915738 6.21739 0.751548 6.38158C0.587358 6.54577 0.495117 6.76846 0.495117 7.00066C0.495117 7.23286 0.587358 7.45555 0.751548 7.61974C0.915738 7.78393 1.13843 7.87617 1.37063 7.87617H6.62369V13.1292C6.62369 13.3614 6.71593 13.5841 6.88012 13.7483C7.04431 13.9125 7.267 14.0047 7.4992 14.0047C7.7314 14.0047 7.95409 13.9125 8.11828 13.7483C8.28247 13.5841 8.37471 13.3614 8.37471 13.1292V7.87617H13.6278C13.86 7.87617 14.0827 7.78393 14.2469 7.61974C14.411 7.45555 14.5033 7.23286 14.5033 7.00066C14.5033 6.76846 14.411 6.54577 14.2469 6.38158C14.0827 6.21739 13.86 6.12515 13.6278 6.12515Z" fill="white"/>
</svg>
