<svg width="18" height="19" viewBox="0 0 18 19" fill="currentColor" xmlns="http://www.w3.org/2000/svg">
<path fill-rule="evenodd" clip-rule="evenodd" d="M9.76552 3.28661H8.9548L8.4904 5.14277L8.02456 5.28677C7.7531 5.37041 7.49011 5.47937 7.23904 5.61221L6.80776 5.84045L5.16616 4.85549L4.59304 5.42933L5.578 7.07093L5.34976 7.50149C5.21667 7.75253 5.10747 8.01553 5.0236 8.28701L4.88032 8.75285L3.02416 9.21725V10.028L4.88032 10.4924L5.02432 10.9582C5.10736 11.2308 5.21584 11.4927 5.34976 11.7437L5.578 12.175L4.59304 13.8166L5.16688 14.3897L6.80848 13.4048L7.23904 13.633C7.49008 13.7664 7.75192 13.8752 8.02456 13.9592L8.4904 14.1024L8.9548 15.9586H9.76552L10.2299 14.1024L10.6958 13.9584C10.9672 13.8748 11.2302 13.7658 11.4813 13.633L11.9126 13.4048L13.5542 14.3897L14.1273 13.8159L13.1423 12.1743L13.3706 11.7437C13.504 11.4927 13.6127 11.2308 13.6967 10.9582L13.84 10.4924L15.6962 10.028V9.21725L13.84 8.75285L13.696 8.28701C13.6123 8.01556 13.5034 7.75256 13.3706 7.50149L13.1423 7.07021L14.1273 5.42861L13.5534 4.85549L11.9118 5.84045L11.4813 5.61221C11.2302 5.47912 10.9672 5.36992 10.6958 5.28605L10.2299 5.14277L9.76552 3.28661ZM11.8859 4.84901L13.2057 4.05701C13.3433 3.97447 13.5045 3.94027 13.6638 3.95983C13.8231 3.9794 13.9713 4.05161 14.0848 4.16501L14.8178 4.89797C14.9312 5.01151 15.0034 5.15968 15.0229 5.31896C15.0425 5.47823 15.0083 5.63947 14.9258 5.77709L14.1338 7.09685C14.2922 7.39445 14.4218 7.70645 14.5226 8.03285L16.0151 8.40653C16.1708 8.44553 16.309 8.53544 16.4078 8.66198C16.5065 8.78851 16.5602 8.94442 16.5602 9.10493V10.1403C16.5602 10.3008 16.5065 10.4567 16.4078 10.5832C16.309 10.7098 16.1708 10.7997 16.0151 10.8387L14.5226 11.2124C14.4218 11.5388 14.2922 11.8508 14.1338 12.1484L14.9258 13.4681C15.0083 13.6057 15.0425 13.767 15.0229 13.9263C15.0034 14.0855 14.9312 14.2337 14.8178 14.3472L14.0848 15.0802C13.9713 15.1936 13.8231 15.2658 13.6638 15.2854C13.5045 15.3049 13.3433 15.2707 13.2057 15.1882L11.8859 14.3962C11.5883 14.5546 11.2763 14.6842 10.9499 14.785L10.5762 16.2776C10.5372 16.4333 10.4473 16.5715 10.3208 16.6702C10.1942 16.769 10.0383 16.8226 9.87784 16.8226H8.84248C8.68197 16.8226 8.52606 16.769 8.39953 16.6702C8.27299 16.5715 8.18308 16.4333 8.14408 16.2776L7.7704 14.785C7.4469 14.685 7.13352 14.5549 6.8344 14.3962L5.51464 15.1882C5.37702 15.2707 5.21578 15.3049 5.0565 15.2854C4.89723 15.2658 4.74906 15.1936 4.63552 15.0802L3.90256 14.3472C3.78916 14.2337 3.71695 14.0855 3.69738 13.9263C3.67782 13.767 3.71202 13.6057 3.79456 13.4681L4.58656 12.1484C4.4279 11.8492 4.29772 11.5359 4.19776 11.2124L2.7052 10.8387C2.54962 10.7997 2.41151 10.7099 2.31277 10.5835C2.21403 10.4571 2.16032 10.3014 2.16016 10.141V9.10565C2.16016 8.94514 2.2138 8.78923 2.31255 8.6627C2.4113 8.53616 2.5495 8.44625 2.7052 8.40725L4.19776 8.03357C4.29856 7.70717 4.42816 7.39517 4.58656 7.09757L3.79456 5.77781C3.71202 5.64019 3.67782 5.47895 3.69738 5.31968C3.71695 5.1604 3.78916 5.01223 3.90256 4.89869L4.63552 4.16501C4.74906 4.05161 4.89723 3.9794 5.0565 3.95983C5.21578 3.94027 5.37702 3.97447 5.51464 4.05701L6.8344 4.84901C7.132 4.69061 7.444 4.56101 7.7704 4.46021L8.14408 2.96765C8.18305 2.81207 8.27285 2.67396 8.39924 2.57522C8.52563 2.47648 8.68137 2.42277 8.84176 2.42261H9.87712C10.0376 2.42261 10.1935 2.47625 10.3201 2.575C10.4466 2.67375 10.5365 2.81195 10.5755 2.96765L10.9492 4.46021C11.2756 4.56101 11.5883 4.69061 11.8859 4.84901ZM9.36016 11.6386C9.89483 11.6386 10.4076 11.4262 10.7857 11.0481C11.1638 10.6701 11.3762 10.1573 11.3762 9.62261C11.3762 9.08793 11.1638 8.57515 10.7857 8.19708C10.4076 7.81901 9.89483 7.60661 9.36016 7.60661C8.82548 7.60661 8.3127 7.81901 7.93463 8.19708C7.55656 8.57515 7.34416 9.08793 7.34416 9.62261C7.34416 10.1573 7.55656 10.6701 7.93463 11.0481C8.3127 11.4262 8.82548 11.6386 9.36016 11.6386ZM9.36016 12.5026C8.59633 12.5026 7.86379 12.1992 7.32369 11.6591C6.78358 11.119 6.48016 10.3864 6.48016 9.62261C6.48016 8.85878 6.78358 8.12624 7.32369 7.58614C7.86379 7.04603 8.59633 6.74261 9.36016 6.74261C10.124 6.74261 10.8565 7.04603 11.3966 7.58614C11.9367 8.12624 12.2402 8.85878 12.2402 9.62261C12.2402 10.3864 11.9367 11.119 11.3966 11.6591C10.8565 12.1992 10.124 12.5026 9.36016 12.5026Z" />
</svg>
