<svg width="11" height="11" viewBox="0 0 11 11" fill="white">
<path d="M5.22009 7.61444C5.13676 7.61444 5.05863 7.60153 4.98572 7.57569C4.9128 7.54986 4.84509 7.50549 4.78259 7.44257L2.53259 5.19257C2.40759 5.06757 2.34759 4.92173 2.35259 4.75507C2.35759 4.5884 2.41759 4.44257 2.53259 4.31757C2.65759 4.19257 2.80613 4.12757 2.97822 4.12257C3.1503 4.11757 3.29863 4.17736 3.42322 4.30194L4.59509 5.47382V1.00507C4.59509 0.827985 4.65509 0.679651 4.77509 0.560068C4.89509 0.440485 5.04343 0.380485 5.22009 0.380068C5.39676 0.379651 5.5453 0.439651 5.66572 0.560068C5.78613 0.680485 5.84592 0.828818 5.84509 1.00507V5.47382L7.01697 4.30194C7.14197 4.17694 7.29051 4.11694 7.46259 4.12194C7.63468 4.12694 7.78301 4.19215 7.90759 4.31757C8.02217 4.44257 8.08217 4.5884 8.08759 4.75507C8.09301 4.92173 8.03301 5.06757 7.90759 5.19257L5.65759 7.44257C5.59509 7.50507 5.52738 7.54944 5.45447 7.57569C5.38155 7.60194 5.30343 7.61486 5.22009 7.61444ZM1.47009 10.3801C1.12634 10.3801 0.832176 10.2578 0.587593 10.0132C0.343009 9.76861 0.220509 9.47423 0.220093 9.13007V7.88007C0.220093 7.70298 0.280093 7.55465 0.400093 7.43507C0.520093 7.31549 0.668426 7.25549 0.845093 7.25507C1.02176 7.25465 1.1703 7.31465 1.29072 7.43507C1.41113 7.55549 1.47093 7.70382 1.47009 7.88007V9.13007H8.97009V7.88007C8.97009 7.70298 9.03009 7.55465 9.15009 7.43507C9.27009 7.31549 9.41842 7.25549 9.59509 7.25507C9.77176 7.25465 9.9203 7.31465 10.0407 7.43507C10.1611 7.55549 10.2209 7.70382 10.2201 7.88007V9.13007C10.2201 9.47382 10.0978 9.76819 9.85322 10.0132C9.60863 10.2582 9.31426 10.3805 8.97009 10.3801H1.47009Z" fill="white" />
</svg>
