<svg width="20" height="20" viewBox="0 0 20 20" fill="currentColor" xmlns="http://www.w3.org/2000/svg">
<path d="M7.99999 2.40002H3.19999C2.98782 2.40002 2.78434 2.48431 2.63431 2.63434C2.48428 2.78437 2.39999 2.98785 2.39999 3.20002V8.00002C2.39999 8.2122 2.48428 8.41568 2.63431 8.56571C2.78434 8.71574 2.98782 8.80002 3.19999 8.80002H7.99999C8.21217 8.80002 8.41565 8.71574 8.56568 8.56571C8.71571 8.41568 8.79999 8.2122 8.79999 8.00002V3.20002C8.79999 2.98785 8.71571 2.78437 8.56568 2.63434C8.41565 2.48431 8.21217 2.40002 7.99999 2.40002ZM7.19999 7.20002H3.99999V4.00002H7.19999V7.20002ZM16 10.4H11.2C10.9878 10.4 10.7843 10.4843 10.6343 10.6343C10.4843 10.7844 10.4 10.9879 10.4 11.2V16C10.4 16.2122 10.4843 16.4157 10.6343 16.5657C10.7843 16.7157 10.9878 16.8 11.2 16.8H16C16.2122 16.8 16.4157 16.7157 16.5657 16.5657C16.7157 16.4157 16.8 16.2122 16.8 16V11.2C16.8 10.9879 16.7157 10.7844 16.5657 10.6343C16.4157 10.4843 16.2122 10.4 16 10.4ZM15.2 15.2H12V12H15.2V15.2ZM13.6 2.40002C11.8352 2.40002 10.4 3.83522 10.4 5.60002C10.4 7.36482 11.8352 8.80002 13.6 8.80002C15.3648 8.80002 16.8 7.36482 16.8 5.60002C16.8 3.83522 15.3648 2.40002 13.6 2.40002ZM13.6 7.20002C12.7176 7.20002 12 6.48242 12 5.60002C12 4.71762 12.7176 4.00002 13.6 4.00002C14.4824 4.00002 15.2 4.71762 15.2 5.60002C15.2 6.48242 14.4824 7.20002 13.6 7.20002ZM5.59999 10.4C3.83519 10.4 2.39999 11.8352 2.39999 13.6C2.39999 15.3648 3.83519 16.8 5.59999 16.8C7.36479 16.8 8.79999 15.3648 8.79999 13.6C8.79999 11.8352 7.36479 10.4 5.59999 10.4ZM5.59999 15.2C4.71759 15.2 3.99999 14.4824 3.99999 13.6C3.99999 12.7176 4.71759 12 5.59999 12C6.48239 12 7.19999 12.7176 7.19999 13.6C7.19999 14.4824 6.48239 15.2 5.59999 15.2Z" />
</svg>
