<svg width="28" height="20" viewBox="0 0 28 20" fill="none" xmlns="http://www.w3.org/2000/svg">
<path d="M18.1419 4.68164C19.5001 4.68169 20.9392 5.42584 21.9632 6.70996C18.6061 8.5609 19.1493 13.3836 22.5413 14.6738C22.075 15.7132 21.851 16.178 21.2503 17.0986C20.4122 18.384 19.2298 19.9843 17.764 19.9961C16.4632 20.0101 16.1276 19.1438 14.3616 19.1543C12.5953 19.1637 12.2265 20.0129 10.9231 20C9.45881 19.9868 8.33928 18.5429 7.50126 17.2578C5.15642 13.6664 4.90987 9.45063 6.35575 7.20801C7.38436 5.61581 9.00633 4.68369 10.5306 4.68359C12.0817 4.68359 13.0584 5.54004 14.3431 5.54004C15.5889 5.53987 16.3477 4.68164 18.1419 4.68164ZM17.7493 0C17.9281 1.21472 17.4337 2.40509 16.7815 3.24707C16.0837 4.15017 14.8805 4.84887 13.7151 4.8125C13.5024 3.64965 14.0466 2.45105 14.7093 1.64551C15.4363 0.756469 16.6832 0.0740866 17.7493 0Z" fill="#0B0B0A"/>
</svg>
