<svg width="28" height="28" viewBox="0 0 28 28" fill="none" xmlns="http://www.w3.org/2000/svg">
<path d="M14 3.4939C7.71772 3.4939 2.625 7.50938 2.625 12.4626C2.625 15.665 4.75409 18.475 7.95681 20.0617C7.78258 20.6626 6.83714 23.9274 6.79952 24.1839C6.79952 24.1839 6.77688 24.3766 6.90167 24.4501C7.02647 24.5236 7.17325 24.4666 7.17325 24.4666C7.53113 24.4166 11.3233 21.7529 11.9796 21.2903C12.6353 21.3832 13.3105 21.4314 14 21.4314C20.2823 21.4314 25.375 17.416 25.375 12.4626C25.375 7.50938 20.2823 3.4939 14 3.4939Z" fill="#371D1E"/>
<path d="M7.71094 15.5935C7.34902 15.5935 7.05469 15.3124 7.05469 14.9668V11.0681H6.03072C5.67558 11.0681 5.38672 10.7798 5.38672 10.4255C5.38672 10.0713 5.67569 9.78296 6.03072 9.78296H9.39116C9.7463 9.78296 10.0352 10.0713 10.0352 10.4255C10.0352 10.7798 9.74619 11.0681 9.39116 11.0681H8.36719V14.9668C8.36719 15.3124 8.07286 15.5935 7.71094 15.5935ZM13.4654 15.585C13.1917 15.585 12.9824 15.4738 12.9193 15.2951L12.5943 14.4444L10.5932 14.4443L10.268 15.2956C10.2051 15.474 9.99589 15.585 9.72223 15.585C9.57829 15.5851 9.436 15.5542 9.30508 15.4944C9.12417 15.411 8.95027 15.1815 9.14955 14.5625L10.7193 10.4308C10.8299 10.1166 11.1658 9.7928 11.5932 9.78307C12.0218 9.79269 12.3577 10.1166 12.4685 10.4314L14.0376 14.5613C14.2373 15.1817 14.0634 15.4113 13.8825 15.4945C13.7516 15.5542 13.6093 15.5851 13.4654 15.585C13.4654 15.585 13.4653 15.585 13.4654 15.585ZM12.2492 13.282L11.5938 11.4199L10.9383 13.282H12.2492ZM15.0938 15.4978C14.7469 15.4978 14.4648 15.2279 14.4648 14.8962V10.4392C14.4648 10.0773 14.7654 9.78296 15.1348 9.78296C15.5041 9.78296 15.8047 10.0773 15.8047 10.4392V14.2947H17.1992C17.546 14.2947 17.8281 14.5646 17.8281 14.8962C17.8281 15.2279 17.546 15.4978 17.1992 15.4978H15.0938ZM18.7397 15.585C18.3777 15.585 18.0834 15.2906 18.0834 14.9287V10.4392C18.0834 10.0773 18.3777 9.78296 18.7397 9.78296C19.1016 9.78296 19.3959 10.0773 19.3959 10.4392V11.8497L21.2268 10.0188C21.321 9.9246 21.4504 9.87276 21.5908 9.87276C21.7547 9.87276 21.9192 9.94341 22.0425 10.0666C22.1574 10.1814 22.226 10.3292 22.2354 10.4826C22.2449 10.6374 22.1934 10.7793 22.0906 10.8822L20.5951 12.3774L22.2105 14.5175C22.2626 14.5861 22.3006 14.6645 22.3222 14.7479C22.3439 14.8314 22.3487 14.9183 22.3365 15.0036C22.3248 15.089 22.2962 15.1713 22.2525 15.2456C22.2088 15.3199 22.1508 15.3847 22.0818 15.4364C21.9683 15.5227 21.8296 15.5692 21.6871 15.5689C21.5854 15.5694 21.485 15.546 21.394 15.5007C21.303 15.4554 21.2238 15.3894 21.1629 15.308L19.6238 13.2688L19.3961 13.4966V14.9284C19.3959 15.1025 19.3267 15.2693 19.2036 15.3924C19.0806 15.5155 18.9137 15.5847 18.7397 15.585Z" fill="#FAE100"/>
</svg>
