<svg width="49" height="49" viewBox="0 0 49 49" fill="none" xmlns="http://www.w3.org/2000/svg">
<path d="M24.1331 31.6338C28.5531 31.6338 32.1331 28.0538 32.1331 23.6338V12.6338C32.1331 8.21379 28.5531 4.63379 24.1331 4.63379C19.7131 4.63379 16.1331 8.21379 16.1331 12.6338V23.6338C16.1331 28.0538 19.7131 31.6338 24.1331 31.6338Z" stroke="white" stroke-width="3" stroke-linecap="round" stroke-linejoin="round"/>
<path d="M8.83301 19.9336V23.3336C8.83301 31.7736 15.693 38.6336 24.133 38.6336C32.573 38.6336 39.433 31.7736 39.433 23.3336V19.9336" stroke="white" stroke-width="3" stroke-linecap="round" stroke-linejoin="round"/>
<path d="M21.353 13.494C23.153 12.834 25.113 12.834 26.913 13.494" stroke="white" stroke-width="3" stroke-linecap="round" stroke-linejoin="round"/>
<path d="M22.533 17.7334C23.593 17.4534 24.693 17.4534 25.753 17.7334" stroke="white" stroke-width="3" stroke-linecap="round" stroke-linejoin="round"/>
<path d="M24.1331 38.6338V44.6338" stroke="white" stroke-width="3" stroke-linecap="round" stroke-linejoin="round"/>
</svg>
