<svg width="34" height="34" viewBox="0 0 34 34" fill="currentColor" xmlns="http://www.w3.org/2000/svg">
<rect x="0.500488" y="0.5" width="33" height="33" rx="16.5" stroke="currentColor" fill = "white"/>
<path d="M14.0002 10H12.0002C11.448 10 11.0002 10.4477 11.0002 11V23C11.0002 23.5523 11.448 24 12.0002 24H14.0002C14.5525 24 15.0002 23.5523 15.0002 23V11C15.0002 10.4477 14.5525 10 14.0002 10Z" fill="#1A1A1A"/>
<path d="M21.999 9.99951H19.999C19.4467 9.99951 18.999 10.4472 18.999 10.9995V22.9995C18.999 23.5518 19.4467 23.9995 19.999 23.9995H21.999C22.5513 23.9995 22.999 23.5518 22.999 22.9995V10.9995C22.999 10.4472 22.5513 9.99951 21.999 9.99951Z" fill="#1A1A1A"/>
</svg>
