<svg width="18" height="19" viewBox="0 0 18 19" fill="none" xmlns="http://www.w3.org/2000/svg">
<path d="M6.16056 1.45999C6.93594 1.07638 7.7896 0.877494 8.65469 0.878914C11.8678 0.878914 14.474 3.58254 14.474 6.9181V7.5259C14.473 8.25142 14.68 8.96203 15.0706 9.57344L16.0259 11.0597C16.8975 12.4176 16.2319 14.2634 14.7154 14.6927C10.7529 15.8149 6.55652 15.8149 2.59395 14.6927C1.07747 14.2634 0.411909 12.4176 1.28352 11.0606L2.23875 9.57344C2.62933 8.96203 2.83638 8.25142 2.83534 7.5259V6.9181C2.83534 5.99218 3.03622 5.11453 3.39572 4.33M4.77512 15.535C5.33982 17.042 6.86319 18.1214 8.65469 18.1214C8.86562 18.1214 9.07253 18.107 9.27542 18.0783M12.5343 15.535C12.3007 16.1505 11.9144 16.6964 11.4118 17.1213" stroke="currentColor" stroke-width="1.6335" stroke-linecap="round"/>
</svg>
