<svg width="18" height="18" viewBox="0 0 18 18" fill="none" xmlns="http://www.w3.org/2000/svg">
<path d="M3.20129 14.7987C4.79671 16.3941 6.71368 17.185 9 17.185C11.2863 17.185 13.2033 16.3941 14.7987 14.7987C16.269 13.3284 17.056 11.5849 17.1704 9.53099C16.9309 9.70473 16.6767 9.86315 16.4084 10.0062C15.5172 10.4813 14.5428 10.715 13.5 10.715C11.7863 10.715 10.3033 10.1059 9.09871 8.90129C7.89413 7.69671 7.285 6.21368 7.285 4.5M3.20129 14.7987L8.1 4.5M3.20129 14.7987C1.60587 13.2033 0.815 11.2863 0.815 9C0.815 6.71368 1.60587 4.79671 3.20129 3.20129C4.67252 1.73007 6.41717 0.943009 8.47274 0.829385M3.20129 14.7987L9.19152 0.0018892M7.285 4.5H8.1M7.285 4.5C7.285 4.5002 7.285 4.5004 7.285 4.5006L8.1 4.5M7.285 4.5C7.28433 3.47186 7.51894 2.50362 7.99102 1.60798C8.13574 1.33341 8.29633 1.07374 8.47274 0.829385M8.1 4.5C8.09933 3.60067 8.30333 2.76333 8.712 1.988C8.93913 1.55709 9.20867 1.17128 9.52064 0.83056C9.35024 0.820213 9.17671 0.815 9 0.815C8.82202 0.815 8.64627 0.819793 8.47274 0.829385M8.47274 0.829385C8.63509 0.604517 8.81085 0.392624 9 0.19403C9.06238 0.128533 9.12622 0.0644817 9.19152 0.0018892M9.19152 0.0018892C9.35912 0.00521136 9.52461 0.012915 9.688 0.0250001C9.91333 0.0416668 10.134 0.0666666 10.35 0.0999999L9.19152 0.0018892Z" stroke="#1A1A1A" stroke-width="1.63"/>
</svg>
