<svg width="58" height="18" viewBox="0 0 58 18" fill="currentColor" xmlns="http://www.w3.org/2000/svg">
<path d="M15.043 15.3008C14.2617 15.9648 13.3906 16.4766 12.4297 16.8359C11.4688 17.1875 10.4688 17.3633 9.42969 17.3633C8.63281 17.3633 7.86328 17.2578 7.12109 17.0469C6.38672 16.8438 5.69922 16.5547 5.05859 16.1797C4.41797 15.7969 3.83203 15.3438 3.30078 14.8203C2.76953 14.2891 2.31641 13.7031 1.94141 13.0625C1.56641 12.4141 1.27344 11.7188 1.0625 10.9766C0.859375 10.2344 0.757812 9.46484 0.757812 8.66797C0.757812 7.87109 0.859375 7.10547 1.0625 6.37109C1.27344 5.63672 1.56641 4.94922 1.94141 4.30859C2.31641 3.66016 2.76953 3.07422 3.30078 2.55078C3.83203 2.01953 4.41797 1.56641 5.05859 1.19141C5.69922 0.816406 6.38672 0.527344 7.12109 0.324219C7.86328 0.113281 8.63281 0.0078125 9.42969 0.0078125C10.4688 0.0078125 11.4688 0.1875 12.4297 0.546875C13.3906 0.898438 14.2617 1.40625 15.043 2.07031L13.2852 5C12.7773 4.48438 12.1914 4.08203 11.5273 3.79297C10.8633 3.49609 10.1641 3.34766 9.42969 3.34766C8.69531 3.34766 8.00391 3.48828 7.35547 3.76953C6.71484 4.05078 6.15234 4.43359 5.66797 4.91797C5.18359 5.39453 4.80078 5.95703 4.51953 6.60547C4.23828 7.24609 4.09766 7.93359 4.09766 8.66797C4.09766 9.41016 4.23828 10.1055 4.51953 10.7539C4.80078 11.4023 5.18359 11.9688 5.66797 12.4531C6.15234 12.9375 6.71484 13.3203 7.35547 13.6016C8.00391 13.8828 8.69531 14.0234 9.42969 14.0234C9.85156 14.0234 10.2617 13.9727 10.6602 13.8711C11.0586 13.7695 11.4375 13.6289 11.7969 13.4492V8.66797H15.043V15.3008ZM22.2852 13.9297C22.4102 13.9688 22.5352 13.9961 22.6602 14.0117C22.7852 14.0195 22.9102 14.0234 23.0352 14.0234C23.3477 14.0234 23.6484 13.9805 23.9375 13.8945C24.2266 13.8086 24.4961 13.6875 24.7461 13.5312C25.0039 13.3672 25.2305 13.1719 25.4258 12.9453C25.6289 12.7109 25.793 12.4531 25.918 12.1719L28.2617 14.5273C27.9648 14.9492 27.6211 15.3281 27.2305 15.6641C26.8477 16 26.4297 16.2852 25.9766 16.5195C25.5312 16.7539 25.0586 16.9297 24.5586 17.0469C24.0664 17.1719 23.5586 17.2344 23.0352 17.2344C22.1523 17.2344 21.3203 17.0703 20.5391 16.7422C19.7656 16.4141 19.0859 15.957 18.5 15.3711C17.9219 14.7852 17.4648 14.0898 17.1289 13.2852C16.793 12.4727 16.625 11.582 16.625 10.6133C16.625 9.62109 16.793 8.71484 17.1289 7.89453C17.4648 7.07422 17.9219 6.375 18.5 5.79688C19.0859 5.21875 19.7656 4.76953 20.5391 4.44922C21.3203 4.12891 22.1523 3.96875 23.0352 3.96875C23.5586 3.96875 24.0703 4.03125 24.5703 4.15625C25.0703 4.28125 25.543 4.46094 25.9883 4.69531C26.4414 4.92969 26.8633 5.21875 27.2539 5.5625C27.6445 5.89844 27.9883 6.27734 28.2852 6.69922L22.2852 13.9297ZM23.9258 7.33203C23.7773 7.27734 23.6289 7.24219 23.4805 7.22656C23.3398 7.21094 23.1914 7.20312 23.0352 7.20312C22.5977 7.20312 22.1836 7.28516 21.793 7.44922C21.4102 7.60547 21.0742 7.83203 20.7852 8.12891C20.5039 8.42578 20.2812 8.78516 20.1172 9.20703C19.9531 9.62109 19.8711 10.0898 19.8711 10.6133C19.8711 10.7305 19.875 10.8633 19.8828 11.0117C19.8984 11.1602 19.918 11.3125 19.9414 11.4688C19.9727 11.6172 20.0078 11.7617 20.0469 11.9023C20.0859 12.043 20.1367 12.168 20.1992 12.2773L23.9258 7.33203ZM33.1016 17H29.9023V4.44922H30.6758L31.7305 5.66797C32.2461 5.19922 32.8281 4.83984 33.4766 4.58984C34.1328 4.33203 34.8164 4.20312 35.5273 4.20312C36.293 4.20312 37.0156 4.35156 37.6953 4.64844C38.375 4.9375 38.9688 5.33984 39.4766 5.85547C39.9844 6.36328 40.3828 6.96094 40.6719 7.64844C40.9688 8.32812 41.1172 9.05469 41.1172 9.82812V17H37.918V9.82812C37.918 9.5 37.8555 9.19141 37.7305 8.90234C37.6055 8.60547 37.4336 8.34766 37.2148 8.12891C36.9961 7.91016 36.7422 7.73828 36.4531 7.61328C36.1641 7.48828 35.8555 7.42578 35.5273 7.42578C35.1914 7.42578 34.875 7.48828 34.5781 7.61328C34.2812 7.73828 34.0234 7.91016 33.8047 8.12891C33.5859 8.34766 33.4141 8.60547 33.2891 8.90234C33.1641 9.19141 33.1016 9.5 33.1016 9.82812V17ZM57.207 8.59766C57.207 9.37109 57.1055 10.1172 56.9023 10.8359C56.707 11.5469 56.4258 12.2148 56.0586 12.8398C55.6914 13.457 55.2539 14.0234 54.7461 14.5391C54.2383 15.0469 53.6719 15.4844 53.0469 15.8516C52.4219 16.2188 51.75 16.5039 51.0312 16.707C50.3203 16.9023 49.5781 17 48.8047 17H43.7422V0.195312H48.8047C49.5781 0.195312 50.3203 0.296875 51.0312 0.5C51.75 0.695313 52.4219 0.976563 53.0469 1.34375C53.6719 1.71094 54.2383 2.15234 54.7461 2.66797C55.2539 3.17578 55.6914 3.74219 56.0586 4.36719C56.4258 4.98438 56.707 5.65234 56.9023 6.37109C57.1055 7.08203 57.207 7.82422 57.207 8.59766ZM53.8438 8.59766C53.8438 7.90234 53.7109 7.25 53.4453 6.64062C53.1875 6.03125 52.8281 5.5 52.3672 5.04688C51.9141 4.58594 51.3789 4.22266 50.7617 3.95703C50.1523 3.69141 49.5 3.55859 48.8047 3.55859H47.1289V13.6367H48.8047C49.5 13.6367 50.1523 13.5078 50.7617 13.25C51.3789 12.9844 51.9141 12.625 52.3672 12.1719C52.8281 11.7109 53.1875 11.1758 53.4453 10.5664C53.7109 9.94922 53.8438 9.29297 53.8438 8.59766Z" />
</svg>
