<svg width="23" height="23" viewBox="0 0 23 23" fill="currentColor" xmlns="http://www.w3.org/2000/svg">
<path d="M18.9724 8.74565C18.9288 8.64601 18.8679 8.55491 18.7924 8.47658L13.2824 2.96658C13.2041 2.89112 13.113 2.83018 13.0134 2.78659C12.9858 2.77373 12.9564 2.76638 12.927 2.75628C12.8502 2.73023 12.7702 2.71448 12.6892 2.70945C12.6699 2.70761 12.6524 2.69751 12.6332 2.69751H6.20483C5.19191 2.69751 4.36816 3.52125 4.36816 4.53418V19.2275C4.36816 20.2404 5.19191 21.0642 6.20483 21.0642H17.2248C18.2378 21.0642 19.0615 20.2404 19.0615 19.2275V9.12584C19.0615 9.10656 19.0514 9.08911 19.0496 9.06891C19.0445 8.9879 19.0288 8.90792 19.0027 8.83106C18.9942 8.80167 18.9841 8.7732 18.9724 8.74565ZM15.9263 8.20751H13.5515V5.8327L15.9263 8.20751ZM6.20483 19.2275V4.53418H11.7148V9.12584C11.7148 9.3694 11.8116 9.60298 11.9838 9.7752C12.156 9.94742 12.3896 10.0442 12.6332 10.0442H17.2248L17.2267 19.2275H6.20483Z" fill="#666666"/>
<path d="M8.04199 11.8809H15.3887V13.7175H8.04199V11.8809ZM8.04199 15.5542H15.3887V17.3909H8.04199V15.5542ZM8.04199 8.20752H9.87866V10.0442H8.04199V8.20752Z" fill="#666666"/>
</svg>
