<svg width="17" height="20" viewBox="0 0 17 20" fill="none" xmlns="http://www.w3.org/2000/svg">
<path d="M6.09841 10.7533H11.3329M6.09841 14.243H8.71566M1.73633 2.90157V16.8602C1.73633 17.323 1.92016 17.7668 2.24738 18.094C2.5746 18.4212 3.0184 18.6051 3.48116 18.6051H13.9502C14.4129 18.6051 14.8567 18.4212 15.1839 18.094C15.5112 17.7668 15.695 17.323 15.695 16.8602V6.6896C15.695 6.45716 15.6485 6.22706 15.5583 6.01282C15.4681 5.79859 15.336 5.60453 15.1698 5.44205L11.2963 1.65402C10.9703 1.33529 10.5325 1.1568 10.0766 1.15674H3.48116C3.0184 1.15674 2.5746 1.34057 2.24738 1.66779C1.92016 1.99501 1.73633 2.43881 1.73633 2.90157Z" stroke="#BFBFBF" stroke-width="1.71" stroke-linecap="round" stroke-linejoin="round"/>
</svg>
