<svg width="23" height="23" viewBox="0 0 23 23" fill="current" xmlns="http://www.w3.org/2000/svg">
<path d="M18.4763 7.12298L13.1873 3.42254C11.7457 2.41249 9.53279 2.46759 8.14627 3.54191L3.54597 7.13217C2.62774 7.84838 1.90234 9.31754 1.90234 10.4745V16.8103C1.90234 19.1517 3.80307 21.0616 6.14454 21.0616H16.043C18.3845 21.0616 20.2852 19.1609 20.2852 16.8194V10.5939C20.2852 9.35427 19.4863 7.83002 18.4763 7.12298ZM11.7824 17.3887C11.7824 17.7652 11.4702 18.0774 11.0938 18.0774C10.7173 18.0774 10.4051 17.7652 10.4051 17.3887V14.6341C10.4051 14.2576 10.7173 13.9454 11.0938 13.9454C11.4702 13.9454 11.7824 14.2576 11.7824 14.6341V17.3887Z" fill="#666666"/>
</svg>
