<svg width="20" height="20" viewBox="0 0 20 20" fill="none" xmlns="http://www.w3.org/2000/svg">
<path d="M17.4763 5.37298L12.1873 1.67254C10.7457 0.662494 8.53279 0.717588 7.14627 1.79191L2.54597 5.38217C1.62774 6.09838 0.902344 7.56754 0.902344 8.7245V15.0603C0.902344 17.4017 2.80307 19.3116 5.14454 19.3116H15.043C17.3845 19.3116 19.2852 17.4109 19.2852 15.0694V8.84387C19.2852 7.60427 18.4863 6.08002 17.4763 5.37298ZM10.7824 15.6387C10.7824 16.0152 10.4702 16.3274 10.0938 16.3274C9.7173 16.3274 9.4051 16.0152 9.4051 15.6387V12.8841C9.4051 12.5076 9.7173 12.1954 10.0938 12.1954C10.4702 12.1954 10.7824 12.5076 10.7824 12.8841V15.6387Z" fill="#BFBFBF"/>
</svg>
