<svg width="16" height="20" viewBox="0 0 16 20" fill="none" xmlns="http://www.w3.org/2000/svg">
<path d="M4.1339 10.3311C4.26773 10.2812 4.41165 10.2553 4.55715 10.2548C4.70265 10.2544 4.84678 10.2794 4.98101 10.3284C5.11525 10.3774 5.23687 10.4494 5.33869 10.5401C5.4405 10.6309 5.52045 10.7385 5.57379 10.8567C5.62714 10.9749 5.65281 11.1012 5.64927 11.2282C5.64574 11.3552 5.61309 11.4802 5.55323 11.596C5.49338 11.7118 5.40755 11.8159 5.30081 11.9023C5.19407 11.9886 5.06859 12.0553 4.93178 12.0986C4.20416 12.3489 3.57966 12.7846 3.13956 13.349C2.69945 13.9134 2.4641 14.5803 2.46413 15.2631V16.9166C2.46413 17.1686 2.57881 17.4103 2.78295 17.5886C2.98708 17.7668 3.26395 17.8669 3.55264 17.8669H12.2607C12.5494 17.8669 12.8263 17.7668 13.0304 17.5886C13.2345 17.4103 13.3492 17.1686 13.3492 16.9166V15.3515C13.3494 14.6468 13.1042 13.9587 12.6462 13.3785C12.1882 12.7982 11.539 12.3532 10.7847 12.1024C10.647 12.0607 10.5204 11.9953 10.4122 11.9101C10.3041 11.8248 10.2166 11.7215 10.155 11.6062C10.0935 11.4909 10.059 11.366 10.0538 11.2389C10.0485 11.1118 10.0725 10.985 10.1244 10.8662C10.1763 10.7473 10.255 10.6388 10.3559 10.5469C10.4567 10.4551 10.5776 10.3819 10.7115 10.3317C10.8453 10.2814 10.9894 10.2551 11.1351 10.2544C11.2808 10.2536 11.4252 10.2784 11.5597 10.3273C12.7262 10.7151 13.7301 11.4033 14.4384 12.3005C15.1468 13.1978 15.5262 14.2618 15.5263 15.3515V16.9166C15.5263 17.6727 15.1822 18.3978 14.5698 18.9325C13.9574 19.4671 13.1268 19.7675 12.2607 19.7675H3.55264C2.68657 19.7675 1.85597 19.4671 1.24356 18.9325C0.631155 18.3978 0.287109 17.6727 0.287109 16.9166L0.287109 15.2631C0.287259 14.1989 0.654239 13.1594 1.34031 12.2798C2.02638 11.4002 2.99979 10.7211 4.1339 10.3311ZM7.90668 0.761597C9.06144 0.761597 10.1689 1.16208 10.9855 1.87494C11.802 2.58779 12.2607 3.55464 12.2607 4.56277V6.46336C12.2607 7.4715 11.802 8.43834 10.9855 9.1512C10.1689 9.86406 9.06144 10.2645 7.90668 10.2645C6.75192 10.2645 5.64445 9.86406 4.82791 9.1512C4.01137 8.43834 3.55264 7.4715 3.55264 6.46336V4.56277C3.55264 3.55464 4.01137 2.58779 4.82791 1.87494C5.64445 1.16208 6.75192 0.761597 7.90668 0.761597ZM7.90668 2.66218C7.3293 2.66218 6.77557 2.86242 6.36729 3.21885C5.95902 3.57528 5.72966 4.05871 5.72966 4.56277V6.46336C5.72966 6.96743 5.95902 7.45085 6.36729 7.80728C6.77557 8.16371 7.3293 8.36395 7.90668 8.36395C8.48406 8.36395 9.0378 8.16371 9.44607 7.80728C9.85434 7.45085 10.0837 6.96743 10.0837 6.46336V4.56277C10.0837 4.05871 9.85434 3.57528 9.44607 3.21885C9.0378 2.86242 8.48406 2.66218 7.90668 2.66218Z" fill="#BFBFBF"/>
</svg>
