<svg width="24" height="24" viewBox="0 0 24 24" fill="#666666" xmlns="http://www.w3.org/2000/svg">
<path d="M8.1339 12.3309C8.26773 12.2811 8.41165 12.2552 8.55715 12.2547C8.70265 12.2542 8.84678 12.2793 8.98101 12.3283C9.11525 12.3773 9.23687 12.4493 9.33869 12.54C9.4405 12.6308 9.52045 12.7384 9.57379 12.8566C9.62714 12.9748 9.65281 13.1011 9.64927 13.2281C9.64574 13.355 9.61309 13.4801 9.55323 13.5959C9.49338 13.7117 9.40755 13.8158 9.30081 13.9021C9.19407 13.9885 9.06859 14.0552 8.93178 14.0985C8.20416 14.3488 7.57966 14.7845 7.13956 15.3488C6.69945 15.9132 6.4641 16.5802 6.46413 17.263V18.9165C6.46413 19.1685 6.57881 19.4102 6.78295 19.5884C6.98708 19.7666 7.26395 19.8668 7.55264 19.8668H16.2607C16.5494 19.8668 16.8263 19.7666 17.0304 19.5884C17.2345 19.4102 17.3492 19.1685 17.3492 18.9165V17.3513C17.3494 16.6467 17.1042 15.9586 16.6462 15.3784C16.1882 14.7981 15.539 14.3531 14.7847 14.1023C14.647 14.0606 14.5204 13.9952 14.4122 13.9099C14.3041 13.8247 14.2166 13.7214 14.155 13.6061C14.0935 13.4908 14.059 13.3659 14.0538 13.2388C14.0485 13.1117 14.0725 12.9849 14.1244 12.8661C14.1763 12.7472 14.255 12.6386 14.3559 12.5468C14.4567 12.455 14.5776 12.3818 14.7115 12.3315C14.8453 12.2813 14.9894 12.255 15.1351 12.2542C15.2808 12.2535 15.4252 12.2783 15.5597 12.3271C16.7262 12.715 17.7301 13.4032 18.4384 14.3004C19.1468 15.1977 19.5262 16.2616 19.5263 17.3513V18.9165C19.5263 19.6726 19.1822 20.3977 18.5698 20.9324C17.9574 21.467 17.1268 21.7674 16.2607 21.7674H7.55264C6.68657 21.7674 5.85597 21.467 5.24356 20.9324C4.63116 20.3977 4.28711 19.6726 4.28711 18.9165V17.263C4.28726 16.1988 4.65424 15.1593 5.34031 14.2796C6.02638 13.4 6.99979 12.721 8.1339 12.3309ZM11.9067 2.76147C13.0614 2.76147 14.1689 3.16195 14.9855 3.87481C15.802 4.58767 16.2607 5.55452 16.2607 6.56265V8.46324C16.2607 9.47137 15.802 10.4382 14.9855 11.1511C14.1689 11.8639 13.0614 12.2644 11.9067 12.2644C10.7519 12.2644 9.64445 11.8639 8.82791 11.1511C8.01137 10.4382 7.55264 9.47137 7.55264 8.46324V6.56265C7.55264 5.55452 8.01137 4.58767 8.82791 3.87481C9.64445 3.16195 10.7519 2.76147 11.9067 2.76147ZM11.9067 4.66206C11.3293 4.66206 10.7756 4.8623 10.3673 5.21873C9.95902 5.57516 9.72966 6.05858 9.72966 6.56265V8.46324C9.72966 8.96731 9.95902 9.45073 10.3673 9.80716C10.7756 10.1636 11.3293 10.3638 11.9067 10.3638C12.4841 10.3638 13.0378 10.1636 13.4461 9.80716C13.8543 9.45073 14.0837 8.96731 14.0837 8.46324V6.56265C14.0837 6.05858 13.8543 5.57516 13.4461 5.21873C13.0378 4.8623 12.4841 4.66206 11.9067 4.66206Z" fill="currentColor"/>
</svg>
